<svg width="36" height="32" viewBox="0 0 36 32" fill="none" xmlns="http://www.w3.org/2000/svg">
  <path d="M34.0515 8.20519H24.2054C23.5326 8.20519 22.9746 7.64724 22.9746 6.97442C22.9746 6.3016 23.5326 5.74365 24.2054 5.74365H34.0515C34.7244 5.74365 35.2823 6.3016 35.2823 6.97442C35.2823 7.64724 34.7244 8.20519 34.0515 8.20519Z" fill="white" />
  <path d="M7.79487 8.20519H1.23077C0.557949 8.20519 0 7.64724 0 6.97442C0 6.3016 0.557949 5.74365 1.23077 5.74365H7.79487C8.46769 5.74365 9.02564 6.3016 9.02564 6.97442C9.02564 7.64724 8.46769 8.20519 7.79487 8.20519Z" fill="white" />
  <path d="M14.3591 13.9487C10.5191 13.9487 7.38477 10.8144 7.38477 6.97436C7.38477 3.13436 10.5191 0 14.3591 0C18.1991 0 21.3335 3.13436 21.3335 6.97436C21.3335 10.8144 18.1991 13.9487 14.3591 13.9487ZM14.3591 2.46154C11.8648 2.46154 9.8463 4.48 9.8463 6.97436C9.8463 9.46872 11.8648 11.4872 14.3591 11.4872C16.8535 11.4872 18.8719 9.46872 18.8719 6.97436C18.8719 4.48 16.8535 2.46154 14.3591 2.46154Z" fill="white" />
  <path d="M34.0512 26.2563H27.4871C26.8143 26.2563 26.2563 25.6984 26.2563 25.0256C26.2563 24.3527 26.8143 23.7948 27.4871 23.7948H34.0512C34.724 23.7948 35.282 24.3527 35.282 25.0256C35.282 25.6984 34.724 26.2563 34.0512 26.2563Z" fill="white" />
  <path d="M11.0769 26.2563H1.23077C0.557949 26.2563 0 25.6984 0 25.0256C0 24.3527 0.557949 23.7948 1.23077 23.7948H11.0769C11.7497 23.7948 12.3077 24.3527 12.3077 25.0256C12.3077 25.6984 11.7497 26.2563 11.0769 26.2563Z" fill="white" />
  <path d="M20.9231 32C17.0831 32 13.9487 28.8656 13.9487 25.0256C13.9487 21.1856 17.0831 18.0513 20.9231 18.0513C24.7631 18.0513 27.8974 21.1856 27.8974 25.0256C27.8974 28.8656 24.7631 32 20.9231 32ZM20.9231 20.5128C18.4287 20.5128 16.4103 22.5313 16.4103 25.0256C16.4103 27.52 18.4287 29.5384 20.9231 29.5384C23.4174 29.5384 25.4359 27.52 25.4359 25.0256C25.4359 22.5313 23.4174 20.5128 20.9231 20.5128Z" fill="white" />
</svg>