<svg width="36" height="33" viewBox="0 0 36 33" fill="none" xmlns="http://www.w3.org/2000/svg">
  <path d="M17.1221 30.6586C7.68406 30.6586 0 23.8241 0 15.4295C0 7.03489 7.68406 0.200363 17.1221 0.200363C26.5601 0.200363 34.2442 7.03489 34.2442 15.4295C34.2442 23.8241 26.5601 30.6586 17.1221 30.6586ZM17.1221 2.42901C9.05383 2.42901 2.50567 8.26808 2.50567 15.4295C2.50567 22.5909 9.05383 28.4299 17.1221 28.4299C25.1903 28.4299 31.7385 22.5909 31.7385 15.4295C31.7385 8.26808 25.1903 2.42901 17.1221 2.42901Z" fill="#292D32" />
  <path d="M34.6625 32.1443C34.3451 32.1443 34.0277 32.0403 33.7771 31.8174L30.4362 28.8459C29.9518 28.415 29.9518 27.7018 30.4362 27.2709C30.9207 26.8401 31.7225 26.8401 32.2069 27.2709L35.5478 30.2425C36.0322 30.6733 36.0322 31.3865 35.5478 31.8174C35.2972 32.0403 34.9798 32.1443 34.6625 32.1443Z" fill="#292D32" />
</svg>